<?xml version="1.0" encoding="UTF-8"?>
<svg width="32" height="32" viewBox="0 0 24 24" fill="none" xmlns="http://www.w3.org/2000/svg">
  <path d="M21.54 15.38C20.91 16.67 19.99 17.84 18.83 18.82C17.95 19.56 16.96 20.17 15.89 20.62C14.5 21.21 13.01 21.51 11.5 21.51C6.5 21.51 2.45 18.37 1.36 14.03C0.899999 12.23 0.889999 10.56 1.36 8.98001C1.65 8.01001 2.09 7.09001 2.67 6.26001C4.99 2.82001 9 1.49001 13 2.59001C14.27 2.95001 15.44 3.54001 16.47 4.31001C17.37 4.98001 18.13 5.81001 18.75 6.73001" stroke="#FFFFFF" stroke-width="2" stroke-linecap="round" stroke-linejoin="round"/>
  <path d="M22 12C22 11.29 21.91 10.61 21.74 9.95996C21.56 9.27996 21.29 8.62996 20.94 8.01996C20.42 7.12996 19.73 6.35996 18.92 5.71996C18.06 5.04996 17.08 4.52996 16.02 4.19996C14.98 3.86996 13.88 3.74996 12.79 3.84996C11.71 3.94996 10.67 4.26996 9.71997 4.78996C8.77997 5.29996 7.93997 5.99996 7.24997 6.83996C6.52997 7.71996 5.98997 8.74996 5.66997 9.86996C5.34997 10.98 5.25997 12.15 5.39997 13.29C5.54997 14.43 5.92997 15.52 6.51997 16.49C7.10997 17.46 7.89997 18.29 8.83997 18.92C9.77997 19.56 10.84 19.99 11.95 20.2C13.07 20.41 14.22 20.39 15.33 20.14C16.44 19.89 17.47 19.42 18.39 18.75C19.31 18.08 20.09 17.23 20.68 16.25C21.27 15.27 21.65 14.17 21.8 13.03C21.88 12.45 21.93 11.86 21.93 11.27" stroke="#FFFFFF" stroke-width="2" stroke-linecap="round" stroke-linejoin="round"/>
</svg>